Coordinates
version=1
nRows=19
nColumns=33
inDegrees=yes

Units are S.I. units (second, meters, Newtons, ...)
Angles are in degrees.

endheader
time	ground_thorax_rot_x	ground_thorax_rot_y	ground_thorax_rot_z	ground_thorax_tx	ground_thorax_ty	ground_thorax_tz	clav_prot_r	clav_elev_r	scapula_abduction_r	scapula_elevation_r	scapula_upward_rot_r	scapula_winging_r	shoulder_elv_r	plane_of_elev_r	axial_rot_r	elbow_flexion_r	pro_sup_r	wrist_flex_r	wrist_dev_r	clav_prot_l	clav_elev_l	scapula_abduction_l	scapula_elevation_l	scapula_upward_rot_l	scapula_winging_l	shoulder_elv_l	plane_of_elev_l	axial_rot_l	elbow_flexion_l	pro_sup_l	wrist_flex_l	wrist_dev_l
      2.51000000	    -39.33832195	     -8.77633916	     12.26621941	   -240.55688088	    843.49192550	      3.09742133	      9.95282758	    -45.00000000	     39.87956744	    -45.00000000	    -45.00000000	   2777.28258037	  -2984.42091935	    147.93006757	   -122.07936970	   1093.30530328	     21.63729505	     18.94568424	      7.18168832	     15.33948753	     38.33823358	    -38.57307492	    -45.00000000	    -45.00000000	  -1352.80128298	   -647.74959897	     23.90913603	    -17.16081273	    728.29712998	     26.05264410	      7.90458928	    -23.71815223
      2.52000000	    -39.35798207	     -8.67195346	     12.30277789	   -241.09269160	    842.93913877	      3.07512105	      9.55937060	    -45.00000000	     39.78181845	    -45.00000000	    -45.00000000	   2777.27362833	  -2984.53184332	    148.02320578	   -122.35849818	   1093.60615298	     23.31232021	     18.95513300	      7.07635324	     15.09156333	     38.45393034	    -38.51842099	    -45.00000000	    -45.00000000	  -1352.75111616	   -647.80994623	     23.78468963	    -17.92029333	    728.45346909	     25.33655367	      7.93396558	    -23.68179847
      2.53000000	    -39.28582006	     -8.72994225	     12.43160311	   -241.38746840	    842.22398256	      3.09524012	      9.59561189	    -45.00000000	     39.71374032	    -45.00000000	    -45.00000000	   2777.28104139	  -2984.57320884	    148.03196908	   -122.48878063	   1093.69236781	     25.09043682	     18.98410773	      6.90889143	     15.21584606	     38.23960831	    -38.32670375	    -45.00000000	    -45.00000000	  -1352.86511875	   -647.97107205	     23.71986753	    -18.25812706	    728.37675431	     24.75956070	      7.72980083	    -23.46644305
      2.54000000	    -39.26150651	     -8.61969622	     12.33064830	   -241.44976031	    841.35817162	      3.15601443	      9.50920504	    -45.00000000	     39.82574070	    -45.00000000	    -45.00000000	   2777.36102056	  -2984.63244412	    148.08415680	   -122.66949054	   1093.99428334	     26.49246431	     19.03306454	      6.77267668	     15.13242090	     38.26209672	    -38.19207105	    -45.00000000	    -45.00000000	  -1353.04877967	   -648.01268406	     23.65128061	    -18.42956679	    728.45617729	     24.45471371	      7.66539843	    -23.40743624
      2.55000000	    -39.22089281	     -8.87090915	     12.65164785	   -241.29770180	    840.36130416	      3.25555769	      9.48105578	    -45.00000000	     39.69286132	    -45.00000000	    -45.00000000	   2777.40674306	  -2984.74483538	    148.13852938	   -123.02233848	   1093.98053205	     27.76020104	     19.02012998	      6.63966191	     15.28830175	     37.94489490	    -38.01120856	    -45.00000000	    -45.00000000	  -1353.09677127	   -648.13790952	     23.65616600	    -18.32959681	    728.24613250	     24.26984677	      7.44665779	    -23.21941764
      2.56000000	    -39.19101988	     -8.82845074	     12.76299475	   -240.95718097	    839.26214663	      3.38969940	      9.51166114	    -45.00000000	     39.53631791	    -45.00000000	    -45.00000000	   2777.44317887	  -2984.82580593	    148.07010626	   -123.48416301	   1094.00541250	     29.05205856	     19.00457810	      6.49027658	     15.19243223	     38.15362518	    -37.98570788	    -45.00000000	    -45.00000000	  -1353.24500675	   -648.15929345	     23.63459285	    -18.29704220	    728.32021828	     24.20071680	      7.43488397	    -23.21940872
      2.57000000	    -39.14707266	     -8.91930946	     12.89723907	   -240.46325441	    838.09237736	      3.55474828	      9.47577852	    -45.00000000	     39.51898120	    -45.00000000	    -45.00000000	   2777.54400830	  -2984.87420465	    148.07999923	   -123.99682528	   1094.10449256	     30.36317423	     19.02281390	      6.36119412	     15.25056649	     38.03535314	    -37.88334317	    -45.00000000	    -45.00000000	  -1353.34815653	   -648.27292493	     23.68399545	    -18.23445016	    728.29551990	     24.19570972	      7.29349775	    -23.14421214
      2.58000000	    -39.12611332	     -9.00155038	     13.05924760	   -239.85745331	    836.88302907	      3.74453551	      9.46567207	    -45.00000000	     39.44326259	    -45.00000000	    -45.00000000	   2777.62003605	  -2984.95833899	    148.05642565	   -124.47128772	   1094.18292885	     31.66093412	     19.03018131	      6.22323642	     15.27186104	     38.03798479	    -37.85289641	    -45.00000000	    -45.00000000	  -1353.47316442	   -648.31878194	     23.68690881	    -18.01548808	    728.29881562	     24.22110056	      7.14313172	    -23.06937436
      2.59000000	    -39.08735312	     -9.33821394	     13.38611642	   -239.18837050	    835.66906672	      3.95383541	      9.46187423	    -45.00000000	     39.28006101	    -45.00000000	    -45.00000000	   2777.78275687	  -2985.00017295	    148.03602584	   -124.88852049	   1094.04249868	     32.90307843	     18.96232912	      6.05267696	     15.30847489	     37.98400973	    -37.78200612	    -45.00000000	    -45.00000000	  -1353.56525079	   -648.39732292	     23.64033420	    -17.78078520	    728.07759811	     24.29709615	      7.00863840	    -22.96378062
      2.60000000	    -39.09123510	     -9.10825874	     13.17994082	   -238.50748327	    834.48065115	      4.17416995	      9.44555765	    -45.00000000	     39.38256740	    -45.00000000	    -45.00000000	   2777.83533597	  -2985.02999526	    147.91212168	   -125.16563301	   1094.35348379	     34.22260941	     18.99396551	      5.89466962	     15.29037691	     38.04710126	    -37.81945777	    -45.00000000	    -45.00000000	  -1353.71695950	   -648.52649272	     23.79344267	    -17.53099900	    728.29686724	     24.37817884	      6.89253261	    -22.96805326
      2.61000000	    -39.08763796	     -9.21114396	     13.34023214	   -237.86690577	    833.34873016	      4.39603328	      9.40680655	    -45.00000000	     39.35641465	    -45.00000000	    -45.00000000	   2777.90847751	  -2985.07080159	    147.93727256	   -125.54582543	   1094.52672135	     35.80133110	     18.94842882	      5.65756849	     15.27278595	     37.99870562	    -37.71770686	    -45.00000000	    -45.00000000	  -1353.85748926	   -648.52018032	     23.87802222	    -17.23663725	    728.32504491	     24.51175574	      6.72993204	    -22.90984270
      2.62000000	    -39.09132780	     -9.40988932	     13.58979707	   -237.31132590	    832.29836110	      4.60878247	      9.38600675	    -45.00000000	     39.14490912	    -45.00000000	    -45.00000000	   2778.03901610	  -2985.11514877	    147.89695990	   -125.84405183	   1094.45602023	     37.33196612	     18.84282383	      5.43788048	     15.33574936	     38.02351959	    -37.74085712	    -45.00000000	    -45.00000000	  -1353.91763943	   -648.54158374	     23.86910835	    -17.02461023	    728.18204654	     24.68563903	      6.55320555	    -22.81262006
      2.63000000	    -39.12114049	     -9.30229350	     13.47235418	   -236.87983764	    831.36460755	      4.80171800	      9.31748062	    -45.00000000	     39.14928607	    -45.00000000	    -45.00000000	   2778.08884979	  -2985.10673487	    147.78448234	   -126.06551009	   1094.68364676	     38.93426307	     18.78780847	      5.21271156	     15.34342731	     38.01724920	    -37.76744130	    -45.00000000	    -45.00000000	  -1354.02009268	   -648.63296154	     23.96574845	    -16.86358353	    728.31786343	     24.88363193	      6.38730753	    -22.78211448
      2.64000000	    -39.10543522	     -9.58996661	     13.74580007	   -236.59527952	    830.57479206	      4.96366710	      9.26375219	    -45.00000000	     38.96058739	    -45.00000000	    -45.00000000	   2778.20111871	  -2985.07615999	    147.77830463	   -126.36190581	   1094.57997491	     40.52048246	     18.63786730	      4.97093774	     15.37424114	     38.04350125	    -37.64958752	    -45.00000000	    -45.00000000	  -1354.10924726	   -648.63134880	     23.90357833	    -16.72419305	    728.21819810	     25.10803489	      6.18091976	    -22.67777224
      2.65000000	    -39.18776669	     -9.34047061	     13.52999745	   -236.46305251	    829.94561456	      5.08430408	      9.24724048	    -45.00000000	     38.99710146	    -45.00000000	    -45.00000000	   2778.19632611	  -2985.13868465	    147.61914167	   -126.62024666	   1094.92574347	     42.45059864	     18.59225634	      4.76414195	     15.33305715	     38.04988810	    -37.76978599	    -45.00000000	    -45.00000000	  -1354.14348428	   -648.66745894	     24.01317718	    -16.66348484	    728.39277158	     25.39290614	      6.03714629	    -22.66820222
      2.66000000	    -39.19651163	     -9.44052366	     13.55569889	   -236.47424908	    829.47413869	      5.15685374	      9.14657216	    -45.00000000	     39.01611263	    -45.00000000	    -45.00000000	   2778.27216366	  -2985.06613868	    147.67605699	   -126.91380531	   1095.18363071	     44.24762044	     18.50410925	      4.51808126	     15.36715974	     38.03696852	    -37.62867318	    -45.00000000	    -45.00000000	  -1354.24452367	   -648.60058099	     24.05309525	    -16.61550527	    728.48235475	     25.64532659	      5.83900318	    -22.61200003
      2.67000000	    -39.25720683	     -9.32041436	     13.44042361	   -236.61109835	    829.17152405	      5.17355053	      9.16876065	    -45.00000000	     38.86793362	    -45.00000000	    -45.00000000	   2778.17994101	  -2985.10697182	    147.51679022	   -127.22638196	   1095.30094915	     46.00917738	     18.40074549	      4.33902114	     15.29573480	     38.04511879	    -37.70978776	    -45.00000000	    -45.00000000	  -1354.23368783	   -648.61945901	     24.07133071	    -16.58646776	    728.62704446	     25.87226750	      5.70569902	    -22.58883619
      2.68000000	    -39.20053489	     -9.49807631	     13.57642580	   -236.84537542	    829.00812601	      5.13669452	      9.03581288	    -45.00000000	     38.82943429	    -45.00000000	    -45.00000000	   2778.17961263	  -2984.91319031	    147.62598631	   -127.62338850	   1095.63333178	     47.56812783	     18.31590352	      4.12491013	     15.40356643	     38.06962510	    -37.38540031	    -45.00000000	    -45.00000000	  -1354.15684064	   -648.53091630	     24.22443599	    -16.48927013	    728.97784774	     26.00026949	      5.53703957	    -22.59065640
      2.69000000	    -39.27519400	     -9.23737220	     13.34007707	   -237.14673758	    828.95655693	      5.05161803	      9.13434845	    -45.00000000	     38.75169269	    -45.00000000	    -45.00000000	   2778.10847255	  -2985.10896746	    147.42771870	   -127.97147843	   1095.69541854	     49.39502038	     18.24330102	      4.03148409	     15.25127685	     38.02291542	    -37.72508061	    -45.00000000	    -45.00000000	  -1354.25347663	   -648.60877558	     24.10191958	    -16.42701347	    728.96294163	     26.14257366	      5.49888842	    -22.57608347
